<svg xmlns="http://www.w3.org/2000/svg" viewBox="0 0 102.14 65.42"><defs><style>.cls-1{fill:#06070c;}</style></defs><title>ad-logo</title><g id="Layer_2" data-name="Layer 2"><g id="Layer_1-2" data-name="Layer 1"><path class="cls-1" d="M96.53,58.23a17.16,17.16,0,0,0,3.26-10.07h0A17.26,17.26,0,0,0,82.53,30.9H75.19L51.07,0,27,30.9h0L0,65.42H102.14Zm-14-23A12.94,12.94,0,0,1,95.45,48.16a12.75,12.75,0,0,1-1.75,6.46L78.58,35.24ZM51.07,7.05,69.69,30.9H32.45Zm-42.18,54L27,38V61.08Zm22.39,0V35.24h41.8L90.86,58a12.83,12.83,0,0,1-8.33,3.06Z"/></g></g></svg>