<svg id="Layer_1" data-name="Layer 1" xmlns="http://www.w3.org/2000/svg" viewBox="0 0 19.1 21.28"><defs><style>.cls-1{fill:#f1f1f1;}</style></defs><title>bd-logo-white</title><path class="cls-1" d="M11.1,4a0.85,0.85,0,0,0-.7,0L8.6,5.1a0.71,0.71,0,0,0-.3.6v2a0.2,0.2,0,0,0,.3.2l1.8-1.1a0.85,0.85,0,0,1,.7,0l3,1.7a0.71,0.71,0,0,1,.3.6v3.4a1.14,1.14,0,0,1-.3.6l-3,1.7a0.85,0.85,0,0,1-.7,0l-3-1.7a0.71,0.71,0,0,1-.3-0.6V5a1.14,1.14,0,0,1,.3-0.6L9.8,3a0.71,0.71,0,0,0,.3-0.6v-2A0.2,0.2,0,0,0,9.8.2L1.6,5.1a0.71,0.71,0,0,0-.3.6V15.9a1.14,1.14,0,0,0,.3.6l8.3,4.8c0.2,0.1.3,0,.3-0.2v-2a1.14,1.14,0,0,0-.3-0.6L4,15.1a0.71,0.71,0,0,1-.3-0.6V7.1A1.14,1.14,0,0,1,4,6.5l0.5-.3c0.2-.1.3,0,0.3,0.2v7.5a1.14,1.14,0,0,0,.3.6l5.4,3.1a0.85,0.85,0,0,0,.7,0l5.4-3.1a0.71,0.71,0,0,0,.3-0.6V7.7a1.14,1.14,0,0,0-.3-0.6Z" transform="translate(-1.3 -0.16)"/><path class="cls-1" d="M11.7,0.3c-0.2-.1-0.3,0-0.3.2v2a1.14,1.14,0,0,0,.3.6l5.9,3.4a0.68,0.68,0,0,1,.4.6v7.5a1.14,1.14,0,0,1-.3.6l-5.9,3.4a0.71,0.71,0,0,0-.3.6v2a0.2,0.2,0,0,0,.3.2l8.3-4.8a0.71,0.71,0,0,0,.3-0.6V5.7a1.14,1.14,0,0,0-.3-0.6Z" transform="translate(-1.3 -0.16)"/></svg>
