<?xml version="1.0" encoding="utf-8"?>
<!-- Generator: Adobe Illustrator 19.0.1, SVG Export Plug-In . SVG Version: 6.00 Build 0)  -->
<svg version="1.1" xmlns="http://www.w3.org/2000/svg" xmlns:xlink="http://www.w3.org/1999/xlink" x="0px" y="0px"
	 viewBox="0 0 21.6 21.6" style="enable-background:new 0 0 21.6 21.6;" xml:space="preserve">
<style type="text/css">
	.st0{fill:#F07322;}
	.st1{fill:#5E6062;}
	.st2{fill:#FFFFFF;}
</style>
<g>
	<g>
		<path class="st0" d="M11.1,4c-0.2-0.1-0.5-0.1-0.7,0L8.6,5.1C8.4,5.2,8.3,5.5,8.3,5.7v2c0,0.2,0.2,0.3,0.3,0.2l1.8-1.1
			c0.2-0.1,0.5-0.1,0.7,0l3,1.7c0.2,0.1,0.3,0.4,0.3,0.6v3.4c0,0.2-0.2,0.5-0.3,0.6l-3,1.7c-0.2,0.1-0.5,0.1-0.7,0l-3-1.7
			c-0.2-0.1-0.3-0.4-0.3-0.6V5c0-0.2,0.2-0.5,0.3-0.6l2.4-1.4c0.2-0.1,0.3-0.4,0.3-0.6v-2c0-0.2-0.2-0.3-0.3-0.2L1.6,5.1
			C1.4,5.2,1.3,5.5,1.3,5.7v10.2c0,0.2,0.2,0.5,0.3,0.6l8.3,4.8c0.2,0.1,0.3,0,0.3-0.2v-2c0-0.2-0.2-0.5-0.3-0.6L4,15.1
			c-0.2-0.1-0.3-0.4-0.3-0.6V7.1c0-0.2,0.2-0.5,0.3-0.6l0.5-0.3c0.2-0.1,0.3,0,0.3,0.2v7.5c0,0.2,0.2,0.5,0.3,0.6l5.4,3.1
			c0.2,0.1,0.5,0.1,0.7,0l5.4-3.1c0.2-0.1,0.3-0.4,0.3-0.6V7.7c0-0.2-0.2-0.5-0.3-0.6L11.1,4z"/>
	</g>
	<g>
		<path class="st1" d="M11.7,0.3c-0.2-0.1-0.3,0-0.3,0.2v2c0,0.2,0.2,0.5,0.3,0.6l5.9,3.4C17.8,6.6,18,6.8,18,7.1v7.5
			c0,0.2-0.2,0.5-0.3,0.6l-5.9,3.4c-0.2,0.1-0.3,0.4-0.3,0.6v2c0,0.2,0.2,0.3,0.3,0.2l8.3-4.8c0.2-0.1,0.3-0.4,0.3-0.6V5.7
			c0-0.2-0.2-0.5-0.3-0.6L11.7,0.3z"/>
	</g>
</g>
</svg>
