<?xml version="1.0" encoding="utf-8"?>
<!-- Generator: Adobe Illustrator 19.0.1, SVG Export Plug-In . SVG Version: 6.00 Build 0)  -->
<svg version="1.1" id="Layer_1" xmlns="http://www.w3.org/2000/svg" xmlns:xlink="http://www.w3.org/1999/xlink" x="0px" y="0px"
	 viewBox="-224 401.1 146.1 39.8" style="enable-background:new -224 401.1 146.1 39.8;" xml:space="preserve">
<style type="text/css">
	.st0{fill:#FFFFFF;}
</style>
<g>
	<path class="st0" d="M-182.4,412.2h9.5c1.2,0,2.2,0.1,3,0.4c0.8,0.3,1.5,0.7,2.1,1.2c0.4,0.4,0.7,0.8,0.9,1.3
		c0.2,0.5,0.3,1.1,0.3,1.7v0.1c0,1.1-0.3,1.9-0.8,2.6c-0.5,0.7-1.2,1.2-2,1.5c1.1,0.4,2,0.9,2.7,1.6c0.7,0.7,1,1.7,1,2.9v0.1
		c0,1.6-0.6,2.9-1.8,3.8s-3,1.3-5.2,1.3h-9.6L-182.4,412.2L-182.4,412.2z M-174.2,419.6c0.8,0,1.4-0.1,1.8-0.4
		c0.4-0.3,0.6-0.7,0.6-1.2v-0.1c0-0.5-0.2-0.9-0.6-1.2c-0.4-0.3-1-0.4-1.7-0.4h-3.3v3.3H-174.2z M-173.4,426.6
		c0.8,0,1.4-0.1,1.8-0.4c0.4-0.3,0.6-0.7,0.6-1.3v-0.1c0-0.5-0.2-0.9-0.6-1.2c-0.4-0.3-1-0.4-1.9-0.4h-3.9v3.4H-173.4z"/>
	<rect x="-157" y="411.4" class="st0" width="5.1" height="19.3"/>
	<rect x="-149.8" y="411.4" class="st0" width="5.1" height="19.3"/>
	<path class="st0" d="M-142.3,412.2h7.1c1.7,0,3.1,0.2,4.4,0.7c1.3,0.4,2.4,1.1,3.3,1.9c0.9,0.8,1.6,1.8,2,2.9
		c0.5,1.1,0.7,2.3,0.7,3.7v0.1c0,1.3-0.2,2.6-0.7,3.7c-0.5,1.1-1.2,2.1-2.1,2.9c-0.9,0.8-2,1.5-3.3,1.9c-1.3,0.5-2.8,0.7-4.5,0.7h-7
		L-142.3,412.2L-142.3,412.2z M-135.1,426.2c1.5,0,2.8-0.4,3.7-1.2c0.9-0.8,1.4-2,1.4-3.5v-0.1c0-1.5-0.5-2.6-1.4-3.4
		c-0.9-0.8-2.2-1.2-3.7-1.2h-2.1v9.4C-137.2,426.2-135.1,426.2-135.1,426.2z"/>
	<path class="st0" d="M-115.9,431.1c-1.1,0-2.2-0.2-3.1-0.5c-0.9-0.4-1.7-0.9-2.4-1.5c-0.7-0.6-1.2-1.4-1.6-2.3s-0.6-1.9-0.6-3v-0.1
		c0-1,0.2-2,0.5-2.9c0.4-0.9,0.9-1.7,1.5-2.4s1.4-1.2,2.3-1.6s1.9-0.6,2.9-0.6c1.2,0,2.3,0.2,3.2,0.6c0.9,0.4,1.7,1,2.2,1.7
		c0.6,0.7,1,1.5,1.3,2.5c0.3,0.9,0.4,1.9,0.4,3v0.5c0,0.2,0,0.4,0,0.5h-9.6c0.2,0.8,0.6,1.4,1.1,1.8s1.2,0.6,2,0.6
		c0.6,0,1.1-0.1,1.7-0.3c0.5-0.2,1-0.6,1.5-1.1l2.8,2.3c-0.7,0.9-1.5,1.6-2.6,2.1C-113.3,430.8-114.5,431.1-115.9,431.1
		 M-113.9,422.4c-0.1-0.8-0.4-1.4-0.8-1.9s-1-0.7-1.7-0.7s-1.2,0.2-1.6,0.7s-0.7,1.1-0.8,1.9H-113.9z"/>
	<path class="st0" d="M-102,431.1c-1.2,0-2.4-0.2-3.5-0.5c-1.1-0.3-2.2-0.9-3.2-1.6l1.9-3c0.8,0.5,1.7,1,2.5,1.2
		c0.9,0.3,1.7,0.4,2.4,0.4c0.9,0,1.3-0.3,1.3-0.8v-0.1c0-0.3-0.2-0.5-0.6-0.7c-0.4-0.2-1-0.3-1.7-0.6c-0.7-0.2-1.4-0.4-2-0.6
		s-1.2-0.5-1.6-0.9c-0.5-0.3-0.8-0.8-1.1-1.3c-0.3-0.5-0.4-1.1-0.4-1.8v-0.1c0-0.8,0.1-1.4,0.4-2c0.3-0.6,0.7-1.1,1.2-1.5
		c0.5-0.4,1.1-0.7,1.8-0.9c0.7-0.2,1.5-0.3,2.3-0.3c1.1,0,2.1,0.1,3.1,0.4s1.9,0.7,2.8,1.2l-1.7,3.2c-0.7-0.4-1.5-0.7-2.2-1
		c-0.8-0.2-1.4-0.4-2-0.4c-0.4,0-0.7,0.1-0.9,0.2c-0.2,0.1-0.3,0.3-0.3,0.5v0.1c0,0.3,0.2,0.5,0.6,0.7s1,0.4,1.7,0.6
		c0.7,0.2,1.4,0.4,2,0.6c0.6,0.2,1.2,0.5,1.6,0.9c0.5,0.3,0.8,0.8,1.1,1.3c0.3,0.5,0.4,1.1,0.4,1.8v0.1c0,0.8-0.1,1.5-0.4,2.1
		s-0.7,1.1-1.2,1.5s-1.1,0.7-1.8,0.9C-100.3,431-101.1,431.1-102,431.1"/>
	<polygon class="st0" points="-94.7,411.4 -89.7,411.4 -89.7,421.2 -85.8,416.4 -80.1,416.4 -85.1,422.2 -80,430.7 -85.5,430.7 
		-88.4,425.9 -89.7,427.4 -89.7,430.7 -94.7,430.7 	"/>
	<polygon class="st0" points="-159.3,413.8 -159.3,411.4 -164.3,411.4 -164.3,416.5 	"/>
	<polygon class="st0" points="-164.3,419.4 -164.3,430.7 -159.3,430.7 -159.3,414.8 	"/>
	<g>
		<g>
			<path class="st0" d="M-207.5,410.3c-0.3-0.2-0.8-0.2-1.1,0l-3,1.7c-0.3,0.2-0.5,0.6-0.5,0.9v3.2c0,0.3,0.2,0.5,0.5,0.3l3-1.7
				c0.3-0.2,0.8-0.2,1.1,0l4.8,2.8c0.3,0.2,0.5,0.6,0.5,0.9v5.6c0,0.3-0.2,0.8-0.5,0.9l-4.8,2.8c-0.3,0.2-0.8,0.2-1.1,0l-4.8-2.8
				c-0.3-0.2-0.5-0.6-0.5-0.9v-12c0-0.3,0.2-0.8,0.5-0.9l3.9-2.3c0.3-0.2,0.5-0.7,0.5-1v-3.2c0-0.3-0.2-0.5-0.5-0.3l-13.4,7.7
				c-0.3,0.2-0.5,0.6-0.5,0.9v16.5c0,0.3,0.2,0.8,0.5,0.9l13.4,7.7c0.3,0.2,0.5,0,0.5-0.3v-3.2c0-0.3-0.2-0.8-0.5-0.9l-9.6-5.5
				c-0.3-0.2-0.5-0.6-0.5-0.9v-12c0-0.3,0.2-0.8,0.5-0.9l0.7-0.4c0.3-0.2,0.5,0,0.5,0.3v12.1c0,0.3,0.2,0.8,0.5,0.9l8.7,5
				c0.3,0.2,0.8,0.2,1.1,0l8.7-5c0.3-0.2,0.5-0.6,0.5-0.9v-10c0-0.3-0.2-0.8-0.5-0.9L-207.5,410.3z"/>
		</g>
		<g>
			<path class="st0" d="M-206.6,404.3c-0.3-0.2-0.5,0-0.5,0.3v3.2c0,0.3,0.2,0.8,0.5,0.9l9.6,5.5c0.3,0.2,0.5,0.6,0.5,0.9v12.1
				c0,0.3-0.2,0.8-0.5,0.9l-9.6,5.5c-0.3,0.2-0.5,0.6-0.5,0.9v3.2c0,0.3,0.2,0.5,0.5,0.3l13.4-7.7c0.3-0.2,0.5-0.6,0.5-0.9V413
				c0-0.3-0.2-0.8-0.5-0.9L-206.6,404.3z"/>
		</g>
	</g>
</g>
</svg>
