<?xml version="1.0" encoding="utf-8"?>
<!-- Generator: Adobe Illustrator 19.0.1, SVG Export Plug-In . SVG Version: 6.00 Build 0)  -->
<svg version="1.1" id="Layer_1" xmlns="http://www.w3.org/2000/svg" xmlns:xlink="http://www.w3.org/1999/xlink" x="0px" y="0px"
	 viewBox="0 0 146.1 39.8" style="enable-background:new 0 0 146.1 39.8;" xml:space="preserve">
<style type="text/css">
	.st0{fill:#5E6062;}
	.st1{fill:#F07322;}
</style>
<g>
	<path class="st0" d="M41.6,11.1h9.5c1.2,0,2.2,0.1,3,0.4c0.8,0.3,1.5,0.7,2.1,1.2c0.4,0.4,0.7,0.8,0.9,1.3c0.2,0.5,0.3,1.1,0.3,1.7
		v0.1c0,1.1-0.3,1.9-0.8,2.6c-0.5,0.7-1.2,1.2-2,1.5c1.1,0.4,2,0.9,2.7,1.6c0.7,0.7,1,1.7,1,2.9v0.1c0,1.6-0.6,2.9-1.8,3.8
		c-1.2,0.9-3,1.3-5.2,1.3h-9.6V11.1z M49.8,18.5c0.8,0,1.4-0.1,1.8-0.4c0.4-0.3,0.6-0.7,0.6-1.2v-0.1c0-0.5-0.2-0.9-0.6-1.2
		c-0.4-0.3-1-0.4-1.7-0.4h-3.3v3.3H49.8z M50.6,25.5c0.8,0,1.4-0.1,1.8-0.4c0.4-0.3,0.6-0.7,0.6-1.3v-0.1c0-0.5-0.2-0.9-0.6-1.2
		c-0.4-0.3-1-0.4-1.9-0.4h-3.9v3.4H50.6z"/>
	<rect x="67" y="10.3" class="st0" width="5.1" height="19.3"/>
	<rect x="74.2" y="10.3" class="st0" width="5.1" height="19.3"/>
	<path class="st0" d="M81.7,11.1h7.1c1.7,0,3.1,0.2,4.4,0.7c1.3,0.4,2.4,1.1,3.3,1.9c0.9,0.8,1.6,1.8,2,2.9c0.5,1.1,0.7,2.3,0.7,3.7
		v0.1c0,1.3-0.2,2.6-0.7,3.7c-0.5,1.1-1.2,2.1-2.1,2.9c-0.9,0.8-2,1.5-3.3,1.9c-1.3,0.5-2.8,0.7-4.5,0.7h-7V11.1z M88.9,25.1
		c1.5,0,2.8-0.4,3.7-1.2c0.9-0.8,1.4-2,1.4-3.5v-0.1c0-1.5-0.5-2.6-1.4-3.4c-0.9-0.8-2.2-1.2-3.7-1.2h-2.1v9.4H88.9z"/>
	<path class="st0" d="M108.1,30c-1.1,0-2.2-0.2-3.1-0.5c-0.9-0.4-1.7-0.9-2.4-1.5c-0.7-0.6-1.2-1.4-1.6-2.3c-0.4-0.9-0.6-1.9-0.6-3
		v-0.1c0-1,0.2-2,0.5-2.9c0.4-0.9,0.9-1.7,1.5-2.4c0.6-0.7,1.4-1.2,2.3-1.6c0.9-0.4,1.9-0.6,2.9-0.6c1.2,0,2.3,0.2,3.2,0.6
		c0.9,0.4,1.7,1,2.2,1.7c0.6,0.7,1,1.5,1.3,2.5c0.3,0.9,0.4,1.9,0.4,3v0.5c0,0.2,0,0.4,0,0.5h-9.6c0.2,0.8,0.6,1.4,1.1,1.8
		c0.5,0.4,1.2,0.6,2,0.6c0.6,0,1.1-0.1,1.7-0.3c0.5-0.2,1-0.6,1.5-1.1l2.8,2.3c-0.7,0.9-1.5,1.6-2.6,2.1
		C110.7,29.7,109.5,30,108.1,30 M110.1,21.3c-0.1-0.8-0.4-1.4-0.8-1.9c-0.4-0.5-1-0.7-1.7-0.7c-0.7,0-1.2,0.2-1.6,0.7
		c-0.4,0.5-0.7,1.1-0.8,1.9H110.1z"/>
	<path class="st0" d="M122,30c-1.2,0-2.4-0.2-3.5-0.5c-1.1-0.3-2.2-0.9-3.2-1.6l1.9-3c0.8,0.5,1.7,1,2.5,1.2
		c0.9,0.3,1.7,0.4,2.4,0.4c0.9,0,1.3-0.3,1.3-0.8v-0.1c0-0.3-0.2-0.5-0.6-0.7c-0.4-0.2-1-0.3-1.7-0.6c-0.7-0.2-1.4-0.4-2-0.6
		c-0.6-0.2-1.2-0.5-1.6-0.9c-0.5-0.3-0.8-0.8-1.1-1.3c-0.3-0.5-0.4-1.1-0.4-1.8v-0.1c0-0.8,0.1-1.4,0.4-2c0.3-0.6,0.7-1.1,1.2-1.5
		c0.5-0.4,1.1-0.7,1.8-0.9c0.7-0.2,1.5-0.3,2.3-0.3c1.1,0,2.1,0.1,3.1,0.4c1,0.3,1.9,0.7,2.8,1.2l-1.7,3.2c-0.7-0.4-1.5-0.7-2.2-1
		c-0.8-0.2-1.4-0.4-2-0.4c-0.4,0-0.7,0.1-0.9,0.2c-0.2,0.1-0.3,0.3-0.3,0.5v0.1c0,0.3,0.2,0.5,0.6,0.7c0.4,0.2,1,0.4,1.7,0.6
		c0.7,0.2,1.4,0.4,2,0.6c0.6,0.2,1.2,0.5,1.6,0.9c0.5,0.3,0.8,0.8,1.1,1.3c0.3,0.5,0.4,1.1,0.4,1.8v0.1c0,0.8-0.1,1.5-0.4,2.1
		c-0.3,0.6-0.7,1.1-1.2,1.5c-0.5,0.4-1.1,0.7-1.8,0.9C123.7,29.9,122.9,30,122,30"/>
	<polygon class="st0" points="129.3,10.3 134.3,10.3 134.3,20.1 138.2,15.3 143.9,15.3 138.9,21.1 144,29.6 138.5,29.6 135.6,24.8
		134.3,26.3 134.3,29.6 129.3,29.6 	"/>
	<polygon class="st1" points="64.7,12.7 64.7,10.3 59.7,10.3 59.7,15.4 	"/>
	<polygon class="st0" points="59.7,18.3 59.7,29.6 64.7,29.6 64.7,13.7 	"/>
	<g>
		<g>
			<path class="st1" d="M16.5,9.2c-0.3-0.2-0.8-0.2-1.1,0l-3,1.7c-0.3,0.2-0.5,0.6-0.5,0.9v3.2c0,0.3,0.2,0.5,0.5,0.3l3-1.7
				c0.3-0.2,0.8-0.2,1.1,0l4.8,2.8c0.3,0.2,0.5,0.6,0.5,0.9v5.6c0,0.3-0.2,0.8-0.5,0.9l-4.8,2.8c-0.3,0.2-0.8,0.2-1.1,0l-4.8-2.8
				c-0.3-0.2-0.5-0.6-0.5-0.9V10.9c0-0.3,0.2-0.8,0.5-0.9l3.9-2.3C14.8,7.5,15,7,15,6.7V3.5c0-0.3-0.2-0.5-0.5-0.3L1.1,10.9
				c-0.3,0.2-0.5,0.6-0.5,0.9v16.5c0,0.3,0.2,0.8,0.5,0.9l13.4,7.7c0.3,0.2,0.5,0,0.5-0.3v-3.2c0-0.3-0.2-0.8-0.5-0.9l-9.6-5.5
				c-0.3-0.2-0.5-0.6-0.5-0.9V14.1c0-0.3,0.2-0.8,0.5-0.9l0.7-0.4c0.3-0.2,0.5,0,0.5,0.3v12.1c0,0.3,0.2,0.8,0.5,0.9l8.7,5
				c0.3,0.2,0.8,0.2,1.1,0l8.7-5c0.3-0.2,0.5-0.6,0.5-0.9v-10c0-0.3-0.2-0.8-0.5-0.9L16.5,9.2z"/>
		</g>
		<g>
			<path class="st0" d="M17.4,3.2c-0.3-0.2-0.5,0-0.5,0.3v3.2c0,0.3,0.2,0.8,0.5,0.9l9.6,5.5c0.3,0.2,0.5,0.6,0.5,0.9v12.1
				c0,0.3-0.2,0.8-0.5,0.9l-9.6,5.5c-0.3,0.2-0.5,0.6-0.5,0.9v3.2c0,0.3,0.2,0.5,0.5,0.3l13.4-7.7c0.3-0.2,0.5-0.6,0.5-0.9V11.9
				c0-0.3-0.2-0.8-0.5-0.9L17.4,3.2z"/>
		</g>
	</g>
</g>
</svg>
