<?xml version="1.0" encoding="utf-8"?>
<!-- Generator: Adobe Illustrator 19.2.1, SVG Export Plug-In . SVG Version: 6.00 Build 0)  -->
<svg version="1.1" id="Layer_1" xmlns="http://www.w3.org/2000/svg" xmlns:xlink="http://www.w3.org/1999/xlink" x="0px" y="0px"
	 viewBox="0 0 32 32" style="enable-background:new 0 0 32 32;" xml:space="preserve">
<style type="text/css">
	.st0{fill:#FFFFFF;}
</style>
<g>
	<path class="st0" d="M28.9,1.5H3.1c-0.9,0-1.6,0.7-1.6,1.6v25.7c0,0.9,0.7,1.6,1.6,1.6H17V19.3h-3.8v-4.4H17v-3.2
		c0-3.7,2.3-5.8,5.6-5.8c1.6,0,3,0.1,3.4,0.2V10h-2.3c-1.8,0-2.2,0.9-2.2,2.1v2.8h4.3l-0.6,4.4h-3.8v11.2h7.4c0.9,0,1.6-0.7,1.6-1.6
		V3.1C30.5,2.3,29.7,1.5,28.9,1.5L28.9,1.5z"/>
</g>
</svg>
