<?xml version="1.0" encoding="utf-8"?>
<!-- Generator: Adobe Illustrator 19.2.1, SVG Export Plug-In . SVG Version: 6.00 Build 0)  -->
<svg version="1.1" id="Layer_1" xmlns="http://www.w3.org/2000/svg" xmlns:xlink="http://www.w3.org/1999/xlink" x="0px" y="0px"
	 viewBox="0 0 32 32" style="enable-background:new 0 0 32 32;" xml:space="preserve">
<style type="text/css">
	.st0{fill:#FFFFFF;}
</style>
<g>
	<path class="st0" d="M28.3,1.5H3.7c-1.2,0-2.1,0.9-2.1,2.1v24.8c0,1.1,1,2.1,2.1,2.1h24.6c1.2,0,2.1-0.9,2.1-2.1V3.6
		C30.5,2.5,29.5,1.5,28.3,1.5L28.3,1.5z M10.3,25.7H5.9v-13h4.4V25.7z M8.1,10.9L8.1,10.9c-1.5,0-2.4-1-2.4-2.3s1-2.3,2.5-2.3
		s2.4,1,2.4,2.3S9.6,10.9,8.1,10.9L8.1,10.9z M26.1,25.7h-4.4v-7c0-1.8-0.6-3-2.2-3c-1.2,0-1.9,0.8-2.2,1.6
		c-0.1,0.3-0.1,0.7-0.1,1.1v7.3h-4.4c0,0,0.1-11.8,0-13.1h4.4v1.9c0.6-0.9,1.6-2.2,3.9-2.2c2.9,0,5,1.9,5,5.9
		C26.1,18.2,26.1,25.7,26.1,25.7z M17.1,14.6L17.1,14.6L17.1,14.6L17.1,14.6z"/>
</g>
</svg>
