<?xml version="1.0" encoding="utf-8"?>
<!-- Generator: Adobe Illustrator 19.2.1, SVG Export Plug-In . SVG Version: 6.00 Build 0)  -->
<svg version="1.1" id="Layer_1" xmlns="http://www.w3.org/2000/svg" xmlns:xlink="http://www.w3.org/1999/xlink" x="0px" y="0px"
	 viewBox="0 0 32 32" style="enable-background:new 0 0 32 32;" xml:space="preserve">
<style type="text/css">
	.st0{fill:#FFFFFF;}
</style>
<path class="st0" d="M28.5,9.6c0,0.3,0,0.6,0,0.8c0,8.5-6.5,18.4-18.4,18.4c-3.6,0-7-1.1-9.9-2.9C0.8,26,1.3,26,1.8,26
	c3,0,5.8-1,8-2.8c-2.8,0-5.2-1.9-6-4.5c0.4,0.1,0.8,0.1,1.2,0.1c0.6,0,1.2-0.1,1.7-0.2c-3-0.6-5.2-3.2-5.2-6.3v-0.1
	C2.4,12.7,3.4,13,4.4,13c-1.7-1.2-2.9-3.1-2.9-5.4c0-1.2,0.3-2.3,0.9-3.2c3.2,3.9,7.9,6.5,13.3,6.8c-0.1-0.5-0.2-1-0.2-1.5
	c0-3.6,2.9-6.5,6.5-6.5c1.9,0,3.5,0.8,4.7,2c1.5-0.3,2.9-0.8,4.1-1.6c-0.5,1.5-1.5,2.8-2.8,3.6c1.3-0.2,2.6-0.5,3.7-1
	C30.9,7.5,29.8,8.7,28.5,9.6z"/>
</svg>
